<svg xmlns="http://www.w3.org/2000/svg" viewBox="0 0 42.583 42.58">
  <defs>
    <style>
      .cls-1 {
        fill: #fff;
      }
    </style>
  </defs>
  <g id="customer" transform="translate(0 -0.013)">
    <g id="Group_24" data-name="Group 24" transform="translate(0 19.636)">
      <g id="Group_23" data-name="Group 23">
        <path id="Path_12" data-name="Path 12" class="cls-1" d="M41.251,237.342a3.741,3.741,0,0,0-5.151.311l-3.667,3.936a3.749,3.749,0,0,0-3.574-2.633H22.315c-.5,0-.663-.19-1.525-.854a8.751,8.751,0,0,0-11.506.027l-2.405,2.117a3.727,3.727,0,0,0-3.431-.043L.69,241.583a1.249,1.249,0,0,0-.558,1.674l7.485,14.97a1.249,1.249,0,0,0,1.674.558l2.759-1.38a3.74,3.74,0,0,0,2.067-3.479H28.858a8.774,8.774,0,0,0,6.986-3.493l5.989-7.985A3.732,3.732,0,0,0,41.251,237.342ZM10.933,255.174,9.291,256l-6.37-12.738,1.643-.822a1.247,1.247,0,0,1,1.673.558L11.491,253.5A1.247,1.247,0,0,1,10.933,255.174Zm28.9-14.223-5.989,7.985a6.266,6.266,0,0,1-4.99,2.495H13.246l-4.675-9.35L10.932,240a6.253,6.253,0,0,1,8.242,0,4.416,4.416,0,0,0,3.141,1.449h6.543a1.247,1.247,0,0,1,0,2.495H22.487a1.247,1.247,0,1,0,0,2.495h7.207a3.753,3.753,0,0,0,2.739-1.192l5.492-5.9a1.247,1.247,0,0,1,1.912,1.6Z" transform="translate(0 -235.959)"/>
      </g>
    </g>
    <g id="Group_26" data-name="Group 26" transform="translate(15.053 0.013)">
      <g id="Group_25" data-name="Group 25">
        <path id="Path_13" data-name="Path 13" class="cls-1" d="M192.171,8.526a4.97,4.97,0,0,0,1.381-3.44,5.058,5.058,0,0,0-4.99-5.073,5.14,5.14,0,0,0-5.073,5.073,4.9,4.9,0,0,0,1.426,3.45,7.61,7.61,0,0,0-3.921,6.613V16.4a1.248,1.248,0,0,0,1.247,1.247H194.8a1.248,1.248,0,0,0,1.247-1.247V15.149A7.6,7.6,0,0,0,192.171,8.526Zm-3.609-6.018a2.572,2.572,0,0,1,2.495,2.578,2.5,2.5,0,0,1-2.495,2.495,2.572,2.572,0,0,1-2.578-2.495A2.646,2.646,0,0,1,188.562,2.508Zm-5.073,12.641a5.14,5.14,0,0,1,5.073-5.073,5.038,5.038,0,0,1,4.99,5.073Z" transform="translate(-180.994 -0.013)"/>
      </g>
    </g>
  </g>
</svg>
